<?xml version="1.0" standalone="no"?>
<!DOCTYPE svg PUBLIC "-//W3C//DTD SVG 20010904//EN"
 "http://www.w3.org/TR/2001/REC-SVG-20010904/DTD/svg10.dtd">
<svg version="1.0" xmlns="http://www.w3.org/2000/svg"
 width="1024.000000pt" height="433.000000pt" viewBox="0 0 1024.000000 433.000000"
 preserveAspectRatio="xMidYMid meet">

<g transform="translate(0.000000,433.000000) scale(0.100000,-0.100000)"
fill="#000000" stroke="none">
<path d="M0 2388 c0 -1195 4 -1969 10 -2010 26 -182 111 -297 258 -351 71 -25
285 -35 389 -18 134 23 239 94 288 195 57 117 55 19 55 2159 l0 1967 -90 0
-90 0 -2 -1972 -3 -1973 -23 -50 c-44 -94 -103 -137 -218 -155 -121 -19 -252
11 -312 72 -17 18 -41 56 -54 83 l-23 50 -3 1973 -2 1972 -90 0 -90 0 0 -1942z"/>
<path d="M1700 2470 c-26 -26 -26 -81 -2 -103 29 -26 77 -22 101 9 27 35 26
59 -4 89 -29 30 -68 32 -95 5z"/>
<path d="M1394 2279 c-17 -5 -37 -16 -44 -24 -17 -21 -30 -19 -30 5 0 18 -7
20 -60 20 l-60 0 0 -220 0 -220 60 0 60 0 0 123 c0 148 10 191 50 212 40 21
72 19 104 -6 l26 -20 0 -155 0 -154 65 0 65 0 0 163 c0 139 -3 168 -20 205
-31 68 -122 98 -216 71z"/>
<path d="M2688 2280 c-52 -16 -98 -52 -126 -98 -36 -63 -39 -174 -4 -239 78
-148 313 -154 402 -10 l18 28 6 -34 c8 -44 49 -85 93 -93 52 -10 122 1 154 25
35 26 39 26 39 1 0 -18 7 -20 58 -20 l57 0 -3 157 c-3 188 -15 231 -70 265
-51 32 -189 33 -242 2 -35 -20 -80 -76 -80 -99 0 -17 103 -31 109 -14 22 68
161 65 161 -5 0 -20 -24 -31 -114 -51 -86 -19 -134 -48 -152 -92 l-14 -33 -55
6 c-49 6 -57 4 -85 -20 -60 -50 -154 -28 -178 43 -6 16 -8 32 -5 35 4 3 78 6
165 6 l158 0 0 48 c-1 90 -58 169 -138 192 -43 12 -115 12 -154 0z m133 -93
c15 -11 39 -49 39 -61 0 -3 -45 -6 -100 -6 -65 0 -100 4 -100 11 0 6 13 24 29
40 24 23 38 29 73 29 24 0 50 -6 59 -13z m443 -174 c-14 -57 -33 -82 -74 -94
-33 -10 -43 -9 -65 5 -28 18 -33 47 -11 65 12 10 124 48 149 50 4 1 4 -11 1
-26z"/>
<path d="M3649 2276 c-20 -7 -50 -23 -68 -35 l-31 -22 0 30 c0 31 0 31 -55 31
l-55 0 0 -220 0 -220 60 0 60 0 0 128 c0 169 13 193 110 204 23 3 25 8 28 61
2 31 -1 57 -5 57 -4 -1 -24 -7 -44 -14z"/>
<path d="M1680 2060 l0 -220 65 0 65 0 0 220 0 220 -65 0 -65 0 0 -220z"/>
<path d="M1820 2273 c0 -4 33 -103 73 -220 l72 -213 60 0 61 0 49 140 c27 77
51 137 54 134 3 -3 27 -65 52 -137 l47 -132 59 -3 60 -3 71 203 c39 112 74
211 77 221 6 15 0 17 -58 17 l-66 0 -41 -132 c-23 -73 -45 -136 -48 -140 -4
-4 -29 56 -56 133 l-50 140 -49 -3 -50 -3 -49 -135 c-27 -74 -50 -136 -52
-138 -2 -1 -23 59 -48 135 l-44 138 -62 3 c-34 2 -62 -1 -62 -5z"/>
</g>
</svg>
